<svg data-v-423bf9ae="" xmlns="http://www.w3.org/2000/svg" viewBox="0 0 440 90" class="iconLeft"><!----><!----><!----><g data-v-423bf9ae="" id="76d79d93-04b2-4749-ba72-1e14cb625fad" fill="#FF1E00" transform="matrix(4.709576222757963,0,0,4.709576222757963,108.02198124110024,11.04395665014927)"><path d="M0.42 10.50L3.67 10.50L3.67 5.67L3.82 5.67L4.62 10.40L7.34 10.40L8.15 5.67L8.30 5.67L8.30 10.50L11.55 10.50L11.55 1.12L6.58 1.12L5.98 4.70L5.25 1.12L0.42 1.12ZM15.92 3.25C13.50 3.25 12.18 4.27 12.18 6.96C12.18 9.69 13.50 10.68 15.92 10.68C18.34 10.68 19.66 9.69 19.66 6.96C19.66 4.27 18.34 3.25 15.92 3.25ZM15.92 8.15C15.48 8.15 15.34 7.87 15.34 6.96C15.34 6.06 15.48 5.78 15.92 5.78C16.35 5.78 16.49 6.05 16.49 6.96C16.49 7.87 16.35 8.15 15.92 8.15ZM19.77 3.43L20.96 10.50L26.21 10.50L27.40 3.43L24.26 3.43L23.79 7.88L23.60 7.88L23.10 3.43ZM27.80 10.50L30.94 10.50L30.94 3.43L27.80 3.43ZM27.79 2.98L30.95 2.98L30.95 0.84L27.79 0.84ZM35.36 8.37C34.89 8.37 34.69 8.23 34.68 7.88L38.72 7.88L38.86 6.50C38.86 4.27 37.63 3.25 35.21 3.25C32.61 3.25 31.54 4.63 31.54 7.10C31.54 9.58 32.48 10.68 35.14 10.68C36.86 10.68 38.72 10.28 38.72 10.28L38.65 8.25C38.65 8.25 36.65 8.37 35.36 8.37ZM34.66 6.17C34.68 5.66 34.79 5.43 35.21 5.43C35.59 5.43 35.73 5.64 35.73 6.17ZM46.70 1.30C46.70 1.30 44.49 0.94 42.99 0.94C40.67 0.94 39.28 1.55 39.28 4.23C39.28 6.19 40.03 6.92 42.66 7.32C43.64 7.48 43.74 7.50 43.74 7.70C43.74 7.92 43.57 8.02 43.01 8.02C41.64 8.02 39.49 7.71 39.49 7.71L39.35 10.19C39.35 10.19 41.30 10.70 43.30 10.70C45.70 10.70 47.01 9.87 47.01 7.48C47.01 5.28 46.23 4.93 43.55 4.33C42.66 4.13 42.56 4.06 42.56 3.86C42.56 3.67 42.70 3.61 43.27 3.61C44.65 3.61 46.62 3.82 46.62 3.82ZM54.40 5.71C54.40 3.68 53.00 3.25 50.97 3.25C49.45 3.25 47.60 3.74 47.60 3.74L47.67 5.87C47.67 5.87 49.42 5.68 50.67 5.68C51.03 5.68 51.27 5.75 51.27 5.95L51.27 6.08L50.26 6.12C48.44 6.19 47.29 6.47 47.29 8.30C47.29 9.97 48.12 10.68 49.88 10.68C51.03 10.68 51.90 10.19 51.90 10.19C51.90 10.19 52.22 10.68 53.26 10.68C53.61 10.68 54.70 10.51 54.70 10.51L54.74 8.53C54.64 8.50 54.46 8.41 54.40 8.37ZM51.27 7.80L51.27 8.32C51.27 8.32 51.03 8.53 50.74 8.53C50.51 8.53 50.43 8.41 50.43 8.22C50.43 7.99 50.57 7.84 50.79 7.83ZM58.98 13.58C61.21 13.58 62.58 12.60 62.58 10.81C62.58 9.11 61.91 8.57 59.95 8.57C58.48 8.57 58.11 8.54 58.11 8.43C58.11 8.34 58.17 8.26 58.17 8.26C58.34 8.29 58.55 8.30 58.70 8.30C61.04 8.30 62.09 7.87 62.09 5.77C62.09 5.60 62.02 5.35 61.96 5.19L62.62 5.19L62.62 3.36L60.03 3.40C60.03 3.40 59.19 3.25 58.59 3.25C56.13 3.25 55.12 3.91 55.12 5.77C55.12 7.08 55.72 7.63 56.25 7.88C56.25 7.88 55.44 8.55 55.44 8.90C55.44 9.34 55.64 9.74 55.94 9.95C55.24 10.50 55.05 10.99 55.05 11.63C55.05 13.34 56.66 13.58 58.98 13.58ZM58.81 10.99C59.51 10.99 59.74 11.00 59.74 11.20C59.74 11.37 59.50 11.42 58.72 11.42C57.99 11.42 57.61 11.38 57.61 11.24C57.61 11.09 57.61 11.00 57.74 10.93C57.74 10.93 58.20 10.99 58.81 10.99ZM58.60 6.26C58.23 6.26 58.06 6.13 58.06 5.75C58.06 5.38 58.23 5.25 58.60 5.25C58.98 5.25 59.15 5.38 59.15 5.75C59.15 6.13 58.98 6.26 58.60 6.26ZM70 5.71C70 3.68 68.60 3.25 66.57 3.25C65.04 3.25 63.20 3.74 63.20 3.74L63.27 5.87C63.27 5.87 65.02 5.68 66.26 5.68C66.63 5.68 66.86 5.75 66.86 5.95L66.86 6.08L65.86 6.12C64.04 6.19 62.89 6.47 62.89 8.30C62.89 9.97 63.71 10.68 65.48 10.68C66.63 10.68 67.49 10.19 67.49 10.19C67.49 10.19 67.82 10.68 68.85 10.68C69.20 10.68 70.29 10.51 70.29 10.51L70.34 8.53C70.24 8.50 70.06 8.41 70 8.37ZM66.86 7.80L66.86 8.32C66.86 8.32 66.63 8.53 66.33 8.53C66.11 8.53 66.02 8.41 66.02 8.22C66.02 7.99 66.16 7.84 66.39 7.83Z"></path></g><!----><g data-v-423bf9ae="" id="b05f9c4c-a13e-49ff-ae58-4520232297ff" transform="matrix(1.089588297211632,0,0,1.089588297211632,-3.331476703954941,-3.331476703954941)" stroke="none" fill="#CF0316"><path d="M45 86.3C22.2 86.3 3.7 67.8 3.7 45S22.2 3.7 45 3.7c22.8 0 41.3 18.5 41.3 41.3 0 9.6-3.3 18.9-9.4 26.3-1.8 2.1-4.9 2.4-7 .7-2.1-1.8-2.4-4.9-.7-7 4.6-5.6 7.1-12.6 7.1-19.9 0-17.2-14-31.3-31.3-31.3-17.2 0-31.3 14-31.3 31.3s14 31.3 31.3 31.3c2.8 0 5 2.2 5 5s-2.2 4.9-5 4.9z"></path><path d="M58 23.4c-2.2 0-4.4.8-6 2.5-3.3 3.3-3.3 8.7 0 12.1 1.7 1.7 3.8 2.5 6 2.5s4.4-.8 6-2.5c3.3-3.3 3.3-8.7 0-12.1-1.6-1.6-3.8-2.5-6-2.5zM32 49.5c-2.2 0-4.4.8-6 2.5-3.3 3.3-3.3 8.7 0 12.1 1.7 1.7 3.8 2.5 6 2.5s4.4-.8 6-2.5c3.3-3.3 3.3-8.7 0-12.1-1.7-1.7-3.8-2.5-6-2.5zM58 49.5c-2.2 0-4.4.8-6 2.5-3.3 3.3-3.3 8.7 0 12.1 1.7 1.7 3.8 2.5 6 2.5s4.4-.8 6-2.5c3.3-3.3 3.3-8.7 0-12.1-1.6-1.7-3.8-2.5-6-2.5zM32 23.4c-2.2 0-4.4.8-6 2.5-3.3 3.3-3.3 8.7 0 12.1 1.7 1.7 3.9 2.5 6 2.5 2.2 0 4.4-.8 6-2.5 3.3-3.3 3.3-8.7 0-12.1-1.7-1.6-3.8-2.5-6-2.5z"></path><g><path d="M45 41.2c-1 0-1.9.4-2.7 1.1-1.5 1.5-1.5 3.9 0 5.4.7.7 1.7 1.1 2.7 1.1 1 0 1.9-.4 2.7-1.1 1.5-1.5 1.5-3.9 0-5.4-.8-.7-1.7-1.1-2.7-1.1z"></path></g><path d="M81.3 86.3H44.6c-2.8 0-5-2.2-5-5s2.2-5 5-5h36.7c2.8 0 5 2.2 5 5s-2.3 5-5 5z"></path></g><!----></svg>